<svg width="24" height="24" viewBox="0 0 24 24" fill="none" xmlns="http://www.w3.org/2000/svg">
<mask id="mask0_9_75" style="mask-type:alpha" maskUnits="userSpaceOnUse" x="0" y="0" width="24" height="24">
<rect width="24" height="24" fill="#D9D9D9"/>
</mask>
<g mask="url(#mask0_9_75)">
<path d="M4.50011 17.6923V7.60002L2.95011 4.2212C2.86551 4.0353 2.86039 3.84363 2.93474 3.6462C3.0091 3.44877 3.13923 3.30774 3.32511 3.22312C3.51101 3.13852 3.70268 3.13083 3.90011 3.20005C4.09753 3.26928 4.23854 3.39685 4.32316 3.58275L6.14239 7.55002H17.8578L19.677 3.58275C19.7616 3.39685 19.9026 3.26673 20.1001 3.19238C20.2975 3.11801 20.4892 3.12826 20.6751 3.22312C20.8609 3.30774 20.9911 3.44877 21.0654 3.6462C21.1398 3.84363 21.1347 4.0353 21.0501 4.2212L19.5001 7.60002V17.6923C19.5001 18.191 19.3235 18.617 18.9702 18.9701C18.617 19.3234 18.1911 19.5 17.6924 19.5H6.30781C5.80909 19.5 5.38313 19.3234 5.02993 18.9701C4.67672 18.617 4.50011 18.191 4.50011 17.6923ZM10.0001 12.75H14.0001C14.2129 12.75 14.3911 12.6782 14.5347 12.5346C14.6783 12.391 14.7501 12.2128 14.7501 12C14.7501 11.7872 14.6783 11.609 14.5347 11.4654C14.3911 11.3218 14.2129 11.25 14.0001 11.25H10.0001C9.78727 11.25 9.60907 11.3218 9.46548 11.4654C9.3219 11.609 9.25011 11.7872 9.25011 12C9.25011 12.2128 9.3219 12.391 9.46548 12.5346C9.60907 12.6782 9.78727 12.75 10.0001 12.75ZM6.30781 18H17.6924C17.7821 18 17.8558 17.9711 17.9135 17.9134C17.9712 17.8557 18.0001 17.782 18.0001 17.6923V9.05H6.00008V17.6923C6.00008 17.782 6.02894 17.8557 6.08664 17.9134C6.14434 17.9711 6.21806 18 6.30781 18Z" fill="black"/>
</g>
</svg>
