<svg width="18" height="20" viewBox="0 0 18 20" fill="none" xmlns="http://www.w3.org/2000/svg">
<path d="M2.30848 19.5C1.80332 19.5 1.37573 19.325 1.02573 18.975C0.675732 18.625 0.500732 18.1974 0.500732 17.6923V4.30777C0.500732 3.8026 0.675732 3.37502 1.02573 3.02502C1.37573 2.67502 1.80332 2.50002 2.30848 2.50002H3.69298V0.384766H5.23148V2.50002H12.8085V0.384766H14.3085V2.50002H15.693C16.1981 2.50002 16.6257 2.67502 16.9757 3.02502C17.3257 3.37502 17.5007 3.8026 17.5007 4.30777V17.6923C17.5007 18.1974 17.3257 18.625 16.9757 18.975C16.6257 19.325 16.1981 19.5 15.693 19.5H2.30848ZM2.30848 18H15.693C15.77 18 15.8405 17.9679 15.9045 17.9038C15.9686 17.8398 16.0007 17.7693 16.0007 17.6923V8.30777H2.00073V17.6923C2.00073 17.7693 2.03282 17.8398 2.09698 17.9038C2.16098 17.9679 2.23148 18 2.30848 18ZM2.00073 6.80777H16.0007V4.30777C16.0007 4.23077 15.9686 4.16026 15.9045 4.09626C15.8405 4.0321 15.77 4.00002 15.693 4.00002H2.30848C2.23148 4.00002 2.16098 4.0321 2.09698 4.09626C2.03282 4.16026 2.00073 4.23077 2.00073 4.30777V6.80777ZM9.00073 12.077C8.7559 12.077 8.54723 11.9908 8.37473 11.8183C8.2024 11.6459 8.11623 11.4373 8.11623 11.1923C8.11623 10.9474 8.2024 10.7388 8.37473 10.5663C8.54723 10.3939 8.7559 10.3078 9.00073 10.3078C9.24557 10.3078 9.45423 10.3939 9.62673 10.5663C9.79907 10.7388 9.88523 10.9474 9.88523 11.1923C9.88523 11.4373 9.79907 11.6459 9.62673 11.8183C9.45423 11.9908 9.24557 12.077 9.00073 12.077ZM5.00073 12.077C4.7559 12.077 4.54723 11.9908 4.37473 11.8183C4.2024 11.6459 4.11623 11.4373 4.11623 11.1923C4.11623 10.9474 4.2024 10.7388 4.37473 10.5663C4.54723 10.3939 4.7559 10.3078 5.00073 10.3078C5.24557 10.3078 5.45423 10.3939 5.62673 10.5663C5.79907 10.7388 5.88523 10.9474 5.88523 11.1923C5.88523 11.4373 5.79907 11.6459 5.62673 11.8183C5.45423 11.9908 5.24557 12.077 5.00073 12.077ZM13.0007 12.077C12.7559 12.077 12.5472 11.9908 12.3747 11.8183C12.2024 11.6459 12.1162 11.4373 12.1162 11.1923C12.1162 10.9474 12.2024 10.7388 12.3747 10.5663C12.5472 10.3939 12.7559 10.3078 13.0007 10.3078C13.2456 10.3078 13.4542 10.3939 13.6267 10.5663C13.7991 10.7388 13.8852 10.9474 13.8852 11.1923C13.8852 11.4373 13.7991 11.6459 13.6267 11.8183C13.4542 11.9908 13.2456 12.077 13.0007 12.077ZM9.00073 16C8.7559 16 8.54723 15.9138 8.37473 15.7413C8.2024 15.5689 8.11623 15.3603 8.11623 15.1155C8.11623 14.8705 8.2024 14.6618 8.37473 14.4895C8.54723 14.317 8.7559 14.2308 9.00073 14.2308C9.24557 14.2308 9.45423 14.317 9.62673 14.4895C9.79907 14.6618 9.88523 14.8705 9.88523 15.1155C9.88523 15.3603 9.79907 15.5689 9.62673 15.7413C9.45423 15.9138 9.24557 16 9.00073 16ZM5.00073 16C4.7559 16 4.54723 15.9138 4.37473 15.7413C4.2024 15.5689 4.11623 15.3603 4.11623 15.1155C4.11623 14.8705 4.2024 14.6618 4.37473 14.4895C4.54723 14.317 4.7559 14.2308 5.00073 14.2308C5.24557 14.2308 5.45423 14.317 5.62673 14.4895C5.79907 14.6618 5.88523 14.8705 5.88523 15.1155C5.88523 15.3603 5.79907 15.5689 5.62673 15.7413C5.45423 15.9138 5.24557 16 5.00073 16ZM13.0007 16C12.7559 16 12.5472 15.9138 12.3747 15.7413C12.2024 15.5689 12.1162 15.3603 12.1162 15.1155C12.1162 14.8705 12.2024 14.6618 12.3747 14.4895C12.5472 14.317 12.7559 14.2308 13.0007 14.2308C13.2456 14.2308 13.4542 14.317 13.6267 14.4895C13.7991 14.6618 13.8852 14.8705 13.8852 15.1155C13.8852 15.3603 13.7991 15.5689 13.6267 15.7413C13.4542 15.9138 13.2456 16 13.0007 16Z" fill="#0D0D0D"/>
</svg>
